# xmcd CD database file
#
# Track frame offsets:
#	150
#	20808
#	49879
#	73666
#	105260
#	142274
#	168602
#	187129
#	212295
#	241538
#
# Disc length: 3553 seconds
#
# Revision: 0
# Processed by: cddbd v1.5.2PL0 Copyright (c) Steve Scherf et al.
# Submitted via: CDex 1.70beta2
#
DISCID=8e0ddf0a
DTITLE=Fourplay - Yes, Please
DYEAR=1900
DGENRE=Jazz
TTITLE0=Once Upon A Love
TTITLE1=Free Range
TTITLE2=Poco A Poco
TTITLE3=Blues Force
TTITLE4=Fortress
TTITLE5=Double Trouble
TTITLE6=Go With Your Heart
TTITLE7=Save Some Love For Me
TTITLE8=Robo Bop
TTITLE9=Lucky
EXTD=
EXTT0=
EXTT1=
EXTT2=
EXTT3=
EXTT4=
EXTT5=
EXTT6=
EXTT7=
EXTT8=
EXTT9=
PLAYORDER=
